# xmcd CD database file
#
# Track frame offsets:
#	150
#	19393
#	35789
#	47565
#	67637
#	80579
#	89293
#	99863
#	106824
#	119484
#	130102
#	147284
#	160803
#	169437
#	180994
#	190178
#	203393
#	212440
#	219890
#	232742
#	243684
#	251285
#	262989
#	272448
#	285330
#	298711
#
# Disc length: 4141 seconds
#
# Revision: 0
# Processed by: cddbd v1.5.2PL0 Copyright (c) Steve Scherf et al.
# Submitted via: CDex 1.51
#
DISCID=5d102b1a
DTITLE=Lourdes Iriondo - Antologia
DYEAR=2006
DGENRE=Euskal Kantautoreak
TTITLE0=Hala Ere
TTITLE1=Agurra
TTITLE2=Maitasun Honek Zugan Dirudi
TTITLE3=Errota Zaharra
TTITLE4=Gaua
TTITLE5=Festa Bukatzean
TTITLE6=Ez Nazazu Utzi
TTITLE7=Gel Hadi, Mundu
TTITLE8=Hain Urruti Ta Hain Hurbil
TTITLE9=Bolon Bat
TTITLE10=Oraindik Orain
TTITLE11=Liu-Pan Mendian
TTITLE12=Aita Nuen Saltzaile
TTITLE13=Tiriki Tauki Tauki
TTITLE14=Elkitzeko Tenorea
TTITLE15=Nahi Zuia Jin
TTITLE16=Lua Lua
TTITLE17=Peru Gurea
TTITLE18=Loa
TTITLE19=Nere Herria
TTITLE20=Bazko Eta Salbatore
TTITLE21=Hala Baita
TTITLE22=Txori Erresiñula
TTITLE23=Hitzak Dira
TTITLE24=Hilko Naiz
TTITLE25=Isiltasuna
EXTD=YEAR: 2006
EXTT0=
EXTT1=
EXTT2=
EXTT3=
EXTT4=
EXTT5=
EXTT6=
EXTT7=
EXTT8=
EXTT9=
EXTT10=
EXTT11=
EXTT12=
EXTT13=
EXTT14=
EXTT15=
EXTT16=
EXTT17=
EXTT18=
EXTT19=
EXTT20=
EXTT21=
EXTT22=
EXTT23=
EXTT24=
EXTT25=
PLAYORDER=
